<svg height="512pt" viewBox="-2 0 512 512" width="512pt" xmlns="http://www.w3.org/2000/svg"><path d="m321.824219 250.378906c0 11.433594-9.269531 20.707032-20.703125 20.707032h-92.527344c-11.4375 0-20.707031-9.273438-20.707031-20.707032v-86.996094c0-11.433593 9.269531-20.703124 20.707031-20.703124h92.527344c11.433594 0 20.703125 9.269531 20.703125 20.703124zm0 0" fill="#fa503c"/><path d="m244.707031 142.679688h20.300781v128.40625h-20.300781zm0 0" fill="#ffdc64"/><path d="m187.886719 196.199219h133.9375v20.300781h-133.9375zm0 0" fill="#ffdc64"/><path d="m481.117188 512c-10.921876 0-21.113282-6.878906-24.8125-17.796875l-46.238282-136.347656c-.789062-2.324219-1.246094-4.746094-1.359375-7.195313l-2.679687-58.613281c-.671875-14.457031 10.5-26.722656 24.957031-27.394531 14.414063-.675782 26.722656 10.496094 27.398437 24.953125l2.503907 54.917969 45.050781 132.847656c4.648438 13.707031-2.695312 28.585937-16.398438 33.234375-2.792968.945312-5.632812 1.394531-8.421874 1.394531zm0 0" fill="#5f6e9b"/><path d="m361.933594 511.992188c-14.46875 0-26.199219-11.726563-26.203125-26.195313l-.046875-120.730469c0-.847656.042968-1.695312.125-2.539062l9.339844-96.273438c1.398437-14.402344 14.222656-24.945312 28.613281-23.550781 14.40625 1.398437 24.953125 14.210937 23.554687 28.613281l-9.222656 95.007813.046875 119.453125c.003906 14.472656-11.722656 26.210937-26.195313 26.214844-.003906 0-.007812 0-.011718 0zm0 0" fill="#414b82"/><path d="m342.75 292.050781h115.667969v-156.867187c0-16.886719-13.6875-30.574219-30.574219-30.574219h-54.519531c-16.886719 0-30.574219 13.6875-30.574219 30.574219zm0 0" fill="#64afff"/><path d="m445.605469 45.257812c0 24.996094-20.261719 45.257813-45.257813 45.257813s-45.257812-20.261719-45.257812-45.257813c0-24.996093 20.261718-45.257812 45.257812-45.257812s45.257813 20.261719 45.257813 45.257812zm0 0" fill="#ffb69e"/><path d="m324.296875 288.933594 82.4375-28.570313c6.910156-2.398437 12.160156-8.089843 13.992187-15.171875l26.609376-102.96875c3.015624-11.679687-4.003907-23.589844-15.683594-26.609375-11.671875-3.023437-23.585938 4.003907-26.605469 15.679688l-23.679687 91.636719-71.375 24.734374c-11.394532 3.953126-17.429688 16.390626-13.480469 27.785157 3.945312 11.382812 16.378906 17.4375 27.785156 13.484375zm0 0" fill="#ffb69e"/><path d="m433.339844 196.375 13.996094-54.152344c3.015624-11.679687-4.003907-23.589844-15.679688-26.609375-11.675781-3.023437-23.589844 4.003907-26.609375 15.679688l-13.871094 53.6875zm0 0" fill="#4699f2"/><path d="m16.160156 510.023438c-13.324218-5.488282-19.675781-20.738282-14.183594-34.0625l43.472657-105.511719 3.285156-78.535157c.601563-14.394531 12.78125-25.578124 27.160156-24.976562 14.394531.601562 25.578125 12.761719 24.976563 27.160156l-3.480469 83.125c-.125 3.042969-.785156 6.035156-1.945313 8.851563l-45.222656 109.765625c-5.476562 13.285156-20.707031 19.6875-34.0625 14.183594zm0 0" fill="#748488"/><path d="m131.351562 511.425781c-14.097656-2.984375-23.105468-16.835937-20.121093-30.929687l24.066406-113.625-32.292969-88.042969c-4.960937-13.527344 1.980469-28.519531 15.511719-33.480469 13.523437-4.960937 28.515625 1.984375 33.480469 15.511719l34.875 95.089844c1.6875 4.601562 2.046875 9.589843 1.03125 14.390625l-25.621094 120.964844c-2.984375 14.097656-16.835938 23.105468-30.929688 20.121093zm0 0" fill="#55696e"/><path d="m163.867188 293.003906h-115.167969v-156.179687c0-16.8125 13.628906-30.441407 30.441406-30.441407h54.285156c16.8125 0 30.441407 13.628907 30.441407 30.441407zm0 0" fill="#ffda52"/><path d="m151.347656 46.910156c0 24.886719-20.175781 45.0625-45.0625 45.0625-24.890625 0-45.0625-20.175781-45.0625-45.0625 0-24.886718 20.171875-45.0625 45.0625-45.0625 24.886719 0 45.0625 20.175782 45.0625 45.0625zm0 0" fill="#ba6746"/><path d="m195.269531 281.417969-84.132812-21.625c-7.054688-1.8125-12.726563-7.03125-15.125-13.910157l-34.804688-100.003906c-3.949219-11.339844 2.046875-23.734375 13.386719-27.683594 11.339844-3.953124 23.734375 2.046876 27.683594 13.390626l30.972656 88.992187 72.84375 18.722656c11.628906 2.992188 18.632812 14.839844 15.644531 26.472657-2.984375 11.613281-14.832031 18.636718-26.46875 15.644531zm0 0" fill="#ba6746"/><path d="m79.609375 198.75 41.132813-14.105469-18.464844-53.058593c-3.949219-11.34375-16.34375-17.34375-27.683594-13.390626-11.339844 3.949219-17.335938 16.34375-13.386719 27.683594zm0 0" fill="#ffc305"/><g fill="#ffdc64"><path d="m265.007812 148.851562-11.277343-1.417968c-9.492188-1.0625-32.492188-4.453125-40.96875-12.929688-5.242188-5.242187-8.128907-12.214844-8.128907-19.628906s2.886719-14.386719 8.128907-19.628906c5.242187-5.242188 12.214843-8.128906 19.628906-8.128906s14.386719 2.886718 19.628906 8.128906c8.472657 8.476562 11.863281 31.476562 12.929688 40.972656zm-32.617187-41.4375c-1.992187 0-3.867187.777344-5.273437 2.183594-1.410157 1.410156-2.183594 3.285156-2.183594 5.277344s.773437 3.863281 2.183594 5.273438c1.726562 1.464843 7.980468 3.390624 15.5 4.957031-1.558594-7.496094-3.488282-13.742188-4.992188-15.546875-1.40625-1.382813-3.261719-2.144532-5.234375-2.144532zm0 0"/><path d="m244.707031 148.699219.070313-12.480469c1.0625-9.496094 4.453125-32.496094 12.929687-40.972656 10.824219-10.824219 28.433594-10.824219 39.257813 0 10.824218 10.824218 10.824218 28.433594 0 39.257812-8.476563 8.476563-31.476563 11.863282-40.972656 12.929688zm27.394531-39.140625c-1.507812 1.808594-3.4375 8.058594-4.996093 15.542968 7.523437-1.566406 13.800781-3.507812 15.570312-5.015624 2.84375-2.84375 2.84375-7.578126-.066406-10.488282-2.894531-2.890625-7.59375-2.90625-10.507813-.039062zm0 0"/></g></svg>